<svg width="50" height="51" viewBox="0 0 50 51" fill="none" xmlns="http://www.w3.org/2000/svg">
<g clip-path="url(#clip0_246_535)">
<path d="M18.1028 3.23918C18.6888 2.65333 19.4835 2.32422 20.3122 2.32422C21.1408 2.32422 21.9355 2.65333 22.5215 3.23918L24.5434 5.25793C24.8368 5.55132 25.0016 5.94925 25.0016 6.36418C25.0016 6.7791 24.8368 7.17703 24.5434 7.47043C24.25 7.76382 23.8521 7.92865 23.4372 7.92865C23.0222 7.92865 22.6243 7.76382 22.3309 7.47043L20.3122 5.44855L6.24965 19.5111V39.1767C6.24965 39.5911 6.41427 39.9885 6.7073 40.2815C7.00032 40.5746 7.39775 40.7392 7.81215 40.7392C8.22655 40.7392 8.62398 40.9038 8.91701 41.1968C9.21003 41.4898 9.37465 41.8873 9.37465 42.3017C9.37465 42.7161 9.21003 43.1135 8.91701 43.4065C8.62398 43.6996 8.22655 43.8642 7.81215 43.8642C6.56895 43.8642 5.37667 43.3703 4.49759 42.4912C3.61851 41.6122 3.12465 40.4199 3.12465 39.1767V22.6361L2.6684 23.0954C2.37501 23.3888 1.97708 23.5537 1.56215 23.5537C1.14723 23.5537 0.7493 23.3888 0.455904 23.0954C0.162509 22.802 -0.00231933 22.4041 -0.00231934 21.9892C-0.00231934 21.5743 0.162509 21.1763 0.455904 20.8829L18.1028 3.23918ZM27.4778 6.36418C28.0638 5.77833 28.8585 5.44922 29.6871 5.44922C30.5158 5.44922 31.3105 5.77833 31.8965 6.36418L37.4996 11.9673V7.92668C37.4996 7.51228 37.6643 7.11485 37.9573 6.82182C38.2503 6.5288 38.6477 6.36418 39.0621 6.36418H42.1871C42.6015 6.36418 42.999 6.5288 43.292 6.82182C43.585 7.11485 43.7496 7.51228 43.7496 7.92668V18.2173L49.5434 24.0079C49.8368 24.3013 50.0016 24.6993 50.0016 25.1142C50.0016 25.5291 49.8368 25.927 49.5434 26.2204C49.25 26.5138 48.8521 26.6787 48.4371 26.6787C48.0222 26.6787 47.6243 26.5138 47.3309 26.2204L46.8746 25.7611V42.3017C46.8746 43.5449 46.3808 44.7372 45.5017 45.6162C44.6226 46.4953 43.4303 46.9892 42.1871 46.9892H17.1872C15.944 46.9892 14.7517 46.4953 13.8726 45.6162C12.9935 44.7372 12.4997 43.5449 12.4997 42.3017V25.7611L12.0434 26.2204C11.8981 26.3657 11.7257 26.4809 11.5359 26.5596C11.346 26.6382 11.1426 26.6787 10.9372 26.6787C10.7317 26.6787 10.5283 26.6382 10.3385 26.5596C10.1486 26.4809 9.97618 26.3657 9.8309 26.2204C9.68563 26.0752 9.57039 25.9027 9.49177 25.7129C9.41315 25.5231 9.37268 25.3196 9.37268 25.1142C9.37268 24.9087 9.41315 24.7053 9.49177 24.5155C9.57039 24.3257 9.68563 24.1532 9.8309 24.0079L27.4778 6.36418ZM29.6871 8.57355L15.6247 22.6361V42.3017C15.6247 42.7161 15.7893 43.1135 16.0823 43.4065C16.3753 43.6996 16.7728 43.8642 17.1872 43.8642H42.1871C42.6015 43.8642 42.999 43.6996 43.292 43.4065C43.585 43.1135 43.7496 42.7161 43.7496 42.3017V22.6361L29.6871 8.57355Z" fill="#0055BF" stroke="#0055BF" stroke-width="2"/>
</g>
<defs>
<clipPath id="clip0_246_535">
<rect width="50" height="50" fill="white" transform="translate(0 0.114258)"/>
</clipPath>
</defs>
</svg>
